<svg width="420" height="260" viewBox="0 0 420 260" fill="none" xmlns="http://www.w3.org/2000/svg">
  <rect width="420" height="260" rx="20" fill="#F9F6EE"/>
  <rect x="20" y="22" width="380" height="54" rx="14" fill="#FFFFFF" stroke="#D7CEC2"/>
  <rect x="36" y="40" width="140" height="10" rx="5" fill="#0F1F3F" opacity="0.85"/>
  <rect x="190" y="40" width="60" height="10" rx="5" fill="#FFD4A8" opacity="0.8"/>
  <rect x="260" y="40" width="120" height="10" rx="5" fill="#BFD9FF" opacity="0.8"/>

  <rect x="20" y="90" width="240" height="140" rx="16" fill="#FFFFFF" stroke="#D7CEC2"/>
  <rect x="36" y="108" width="208" height="12" rx="6" fill="#E6ECF8"/>
  <rect x="36" y="132" width="208" height="12" rx="6" fill="#E6ECF8"/>
  <rect x="36" y="156" width="208" height="12" rx="6" fill="#E6ECF8"/>
  <rect x="36" y="180" width="140" height="12" rx="6" fill="#FFE2C6"/>
  <rect x="36" y="204" width="100" height="10" rx="5" fill="#D5E3FA"/>

  <g opacity="0.85">
    <path d="M50 180C76 150 124 150 150 180C168 200 196 205 220 182" stroke="#1E7FF5" stroke-width="3" stroke-linecap="round"/>
    <path d="M50 196C70 170 120 170 154 196C170 209 198 214 220 200" stroke="#FF8A3C" stroke-width="3" stroke-linecap="round" opacity="0.7"/>
  </g>

  <rect x="280" y="90" width="120" height="60" rx="16" fill="#FFFFFF" stroke="#D7CEC2"/>
  <rect x="296" y="108" width="88" height="10" rx="5" fill="#E6ECF8"/>
  <rect x="296" y="128" width="66" height="10" rx="5" fill="#FFE2C6"/>

  <rect x="280" y="166" width="120" height="64" rx="16" fill="#FFFFFF" stroke="#D7CEC2"/>
  <rect x="296" y="184" width="88" height="10" rx="5" fill="#E6ECF8"/>
  <rect x="296" y="204" width="64" height="10" rx="5" fill="#BFD9FF"/>
  <rect x="296" y="222" width="40" height="10" rx="5" fill="#FFE2C6"/>

  <circle cx="360" cy="122" r="10" fill="#1E7FF5" opacity="0.8"/>
  <circle cx="332" cy="122" r="10" fill="#FF8A3C" opacity="0.5"/>
  <circle cx="304" cy="122" r="10" fill="#20B29A" opacity="0.5"/>
</svg>

