<svg width="420" height="260" viewBox="0 0 420 260" fill="none" xmlns="http://www.w3.org/2000/svg">
  <rect width="420" height="260" rx="20" fill="#F5F8F0"/>
  <rect x="20" y="22" width="380" height="64" rx="18" fill="#FFFFFF" stroke="#CFE0C8"/>
  <rect x="36" y="40" width="150" height="12" rx="6" fill="#0A2A12" opacity="0.85"/>
  <rect x="200" y="40" width="90" height="12" rx="6" fill="#8AC452" opacity="0.8"/>
  <rect x="300" y="40" width="80" height="12" rx="6" fill="#CDE6A7" opacity="0.8"/>

  <rect x="20" y="98" width="240" height="142" rx="18" fill="#FFFFFF" stroke="#CFE0C8"/>
  <rect x="36" y="118" width="80" height="10" rx="5" fill="#E3F1D9"/>
  <rect x="124" y="118" width="96" height="10" rx="5" fill="#FEE7BF"/>
  <rect x="36" y="138" width="184" height="10" rx="5" fill="#E3F1D9"/>
  <rect x="36" y="158" width="184" height="10" rx="5" fill="#FEE7BF"/>
  <rect x="36" y="178" width="184" height="10" rx="5" fill="#E3F1D9"/>
  <rect x="36" y="198" width="120" height="10" rx="5" fill="#D4EFC6"/>
  <rect x="36" y="218" width="80" height="10" rx="5" fill="#B1E09C"/>

  <rect x="280" y="98" width="120" height="88" rx="18" fill="#FFFFFF" stroke="#CFE0C8"/>
  <rect x="300" y="118" width="80" height="12" rx="6" fill="#E3F1D9"/>
  <rect x="300" y="138" width="96" height="12" rx="6" fill="#FEE7BF"/>
  <rect x="300" y="158" width="72" height="12" rx="6" fill="#D4EFC6"/>

  <rect x="280" y="198" width="120" height="42" rx="16" fill="#FFFFFF" stroke="#CFE0C8"/>
  <rect x="300" y="212" width="80" height="10" rx="5" fill="#8AC452" opacity="0.9"/>

  <path d="M60 196C84 168 130 168 154 196C170 214 196 220 220 204" stroke="#8AC452" stroke-width="3" stroke-linecap="round"/>
</svg>

